<?xml version="1.0" encoding="utf-8"?>
<!-- Generator: Adobe Illustrator 23.1.1, SVG Export Plug-In . SVG Version: 6.00 Build 0)  -->
<svg version="1.1" id="Layer_1" xmlns="http://www.w3.org/2000/svg" xmlns:xlink="http://www.w3.org/1999/xlink" x="0px" y="0px"
	 viewBox="0 0 28.6 19.8" style="enable-background:new 0 0 28.6 19.8;" xml:space="preserve">
<style type="text/css">
	.st0{enable-background:new    ;}
	.st1{fill:#FFFFFF;}
</style>
<g class="st0">
	<path class="st1" d="M12,6.5c0,1.5-0.3,3.1-1,4.7c-0.7,1.7-1.6,3.3-2.8,4.8S5.6,18.8,4,19.8l-2-1.5c1-1.1,1.8-2.5,2.3-4
		c0.6-1.6,0.8-2.9,0.8-4.1S4.8,7.9,4,7C3.3,6.2,2.1,5.7,0.6,5.6L0,3.6c0.2-0.3,0.7-0.7,1.5-1.1c0.8-0.4,1.7-0.8,2.7-1.2
		c1-0.4,1.9-0.7,2.8-1C7.9,0.1,8.6,0,9.1,0c1,0.8,1.7,1.7,2.2,2.7C11.8,3.8,12,5,12,6.5z M28.6,6.5c0,1.5-0.3,3.1-1,4.7
		c-0.7,1.7-1.6,3.3-2.8,4.8s-2.6,2.8-4.2,3.8l-1.9-1.5c1-1.1,1.7-2.5,2.3-4c0.6-1.6,0.8-2.9,0.8-4.1S21.4,7.9,20.7,7
		c-0.8-0.9-1.9-1.3-3.4-1.4l-0.6-2.1c0.2-0.3,0.7-0.7,1.5-1.1c0.8-0.4,1.7-0.8,2.7-1.2c1-0.4,2-0.7,2.9-1c0.9-0.2,1.6-0.4,2-0.3
		c1,0.8,1.7,1.7,2.2,2.7C28.4,3.8,28.6,5,28.6,6.5z"/>
</g>
</svg>
