<?xml version="1.0" encoding="utf-8"?>
<!-- Generator: Adobe Illustrator 23.1.1, SVG Export Plug-In . SVG Version: 6.00 Build 0)  -->
<svg version="1.1" id="Layer_1" xmlns="http://www.w3.org/2000/svg" xmlns:xlink="http://www.w3.org/1999/xlink" x="0px" y="0px"
	 viewBox="0 0 28.7 19.7" style="enable-background:new 0 0 28.7 19.7;" xml:space="preserve">
<style type="text/css">
	.st0{enable-background:new    ;}
	.st1{fill:#272727;}
</style>
<g class="st0">
	<path class="st1" d="M12.1,16.1c-0.2,0.3-0.7,0.7-1.5,1.1c-0.8,0.4-1.7,0.8-2.7,1.2c-1,0.4-1.9,0.7-2.8,1c-0.9,0.3-1.6,0.4-2,0.3
		C2,18.9,1.3,18,0.8,17C0.3,16,0,14.8,0,13.2c0-1.5,0.3-3,1-4.7s1.6-3.2,2.8-4.7C5.1,2.3,6.5,1,8.1,0L10,1.5C9,2.6,8.2,4,7.7,5.5
		C7.1,7,6.8,8.4,6.8,9.7c0,1.2,0.4,2.2,1.1,3.1c0.8,0.8,1.9,1.3,3.5,1.3L12.1,16.1z M28.7,16.1c-0.3,0.3-0.8,0.7-1.6,1.1
		c-0.8,0.4-1.7,0.8-2.7,1.2c-1,0.4-1.9,0.7-2.8,1c-0.9,0.3-1.5,0.4-2,0.3c-1-0.8-1.7-1.7-2.2-2.7c-0.5-1-0.8-2.2-0.8-3.8
		c0-1.5,0.3-3,1-4.7s1.6-3.2,2.8-4.7C21.7,2.3,23.1,1,24.7,0l1.9,1.5c-1.1,1.1-1.8,2.5-2.4,4c-0.5,1.5-0.8,2.9-0.8,4.2
		c0,1.2,0.4,2.2,1.1,3.1c0.8,0.8,1.9,1.3,3.5,1.3L28.7,16.1z"/>
</g>
</svg>
