<?xml version="1.0" encoding="utf-8"?>
<!-- Generator: Adobe Illustrator 23.1.1, SVG Export Plug-In . SVG Version: 6.00 Build 0)  -->
<svg version="1.1" id="Layer_1" xmlns="http://www.w3.org/2000/svg" xmlns:xlink="http://www.w3.org/1999/xlink" x="0px" y="0px"
	 viewBox="0 0 390 93.3" style="enable-background:new 0 0 390 93.3;" xml:space="preserve">
<style type="text/css">
	.st0{fill:#72BAC1;}
	.st1{fill:#F7EC13;}
	.st2{opacity:0.751;fill:#72BAC1;enable-background:new    ;}
	.st3{fill:#155D6E;}
</style>
<g>
	<polygon class="st0" points="63.2,49.5 0.5,40 0,39.9 0,80.9 0.5,80.9 70.7,89.9 	"/>
	<polygon class="st1" points="248.1,44.7 248,35.8 0.5,0.1 0,0 0,14.5 0,25.7 0.5,25.8 248.4,60.8 	"/>
	<polygon class="st2" points="389.5,32.6 337.8,25.3 338.8,55.8 339.5,76.1 389.5,82.7 390,82.7 390,62 390,32.6 	"/>
	<polygon class="st3" points="0,80.9 0,93.3 390,93.3 390,82.7 390,62 389.5,62 338.8,55.8 248.1,44.7 248.4,60.8 0.5,25.8 0,25.7 
		0,39.9 0.5,40 63.2,49.5 70.7,89.9 0.5,80.9 	"/>
</g>
</svg>
