<?xml version="1.0" encoding="utf-8"?>
<!-- Generator: Adobe Illustrator 23.1.1, SVG Export Plug-In . SVG Version: 6.00 Build 0)  -->
<svg version="1.1" xmlns="http://www.w3.org/2000/svg" xmlns:xlink="http://www.w3.org/1999/xlink" x="0px" y="0px"
	 viewBox="0 0 1400 228" style="enable-background:new 0 0 1400 228;" xml:space="preserve">
<style type="text/css">
	.st0{display:none;}
	.st1{display:inline;fill:#155D6E;}
	.st2{display:inline;}
	.st3{fill:#72BAC1;}
	.st4{fill:#F7EC13;}
	.st5{fill:#155D6E;}
</style>
<g id="Layer_1">
	<g class="st0">
		<path id="Path_6" class="st1" d="M1623.7-1205.5L1634,265.2L-31.6,0L-18-1481.7L1623.7-1205.5z"/>
		<g transform="matrix(1, 0, 0, 1, 0, 0)" class="st2">
			<path id="Path_10-2" class="st3" d="M429.3,63.8L142.5,14.1l0.1,50.5l286.8,47.1L429.3,63.8z"/>
		</g>
		<g transform="matrix(1, 0, 0, 1, 0, 0)" class="st2">
			<path id="Path_11-2" class="st4" d="M1244.9,191.1l-408.8-63.9l0.1,26.1l408.8,62.5L1244.9,191.1z"/>
		</g>
	</g>
	<polygon class="st5" points="1244.9,203.3 1400,228 1400,0 0,0 0,5 142.5,27.7 429.3,73.4 836.1,138.2 	"/>
	<g id="Layer_2_copy">
	</g>
</g>
<g id="Layer_1_copy">
	<g class="st0">
		<path id="Path_6_1_" class="st1" d="M1623.7-1205.5L1634,265.2L-31.6,0L-18-1481.7L1623.7-1205.5z"/>
		<g transform="matrix(1, 0, 0, 1, 0, 0)" class="st2">
			<path id="Path_10-2_1_" class="st3" d="M429.3,63.8L142.5,14.1l0.1,50.5l286.8,47.1L429.3,63.8z"/>
		</g>
		<g transform="matrix(1, 0, 0, 1, 0, 0)" class="st2">
			<path id="Path_11-2_1_" class="st4" d="M1244.9,191.1l-408.8-63.9l0.1,26.1l408.8,62.5L1244.9,191.1z"/>
		</g>
	</g>
	<g id="Layer_2_copy_1_">
	</g>
</g>
</svg>
