<?xml version="1.0" encoding="utf-8"?>
<!-- Generator: Adobe Illustrator 23.1.1, SVG Export Plug-In . SVG Version: 6.00 Build 0)  -->
<svg version="1.1" id="Layer_1" xmlns="http://www.w3.org/2000/svg" xmlns:xlink="http://www.w3.org/1999/xlink" x="0px" y="0px"
	 viewBox="0 0 1399.5 247.2" style="enable-background:new 0 0 1399.5 247.2;" xml:space="preserve">
<style type="text/css">
	.st0{fill:#155D6E;}
	.st1{opacity:0.751;fill:#72BAC1;enable-background:new    ;}
	.st2{fill:#72BAC1;}
	.st3{fill:#F7EC13;}
</style>
<g>
	<polygon class="st0" points="1262.5,211.8 975.7,163.6 489.3,81.8 489.3,88.6 80.6,26.1 80.5,13 6.8,0.6 3,0 0,0 0,52.3 0.5,52.4 
		101.6,70 101.7,117.9 0.5,101.3 0,101.2 0,120.9 0,136.2 0,247.2 0.5,247.2 32.2,247.2 1399.5,247.2 1399.5,234.9 	"/>
	<polygon class="st1" points="1262.4,172.6 1139.3,152.3 1139.3,150.2 975.6,121.8 975.7,163.6 975.7,172.3 1262.5,219.5 
		1262.5,211.8 	"/>
	<polygon class="st2" points="0.5,52.4 0,52.3 0,101.2 0.5,101.3 	"/>
	<polygon class="st2" points="101.7,117.9 101.6,70 0.5,52.4 0.5,101.3 	"/>
	<polygon class="st3" points="84.6,0.6 80.5,0 80.5,0.6 	"/>
	<polygon class="st3" points="84.6,0.6 80.5,0.6 80.5,13 80.6,26.1 489.3,88.6 489.3,81.8 489.3,63.9 	"/>
	<polygon class="st2" points="1139.2,101.8 1139.3,150.2 1139.3,152.3 1262.4,172.6 1399.5,195.1 1399.5,146.9 	"/>
</g>
</svg>
