<?xml version="1.0" standalone="no"?>
<!DOCTYPE svg PUBLIC "-//W3C//DTD SVG 20010904//EN"
 "http://www.w3.org/TR/2001/REC-SVG-20010904/DTD/svg10.dtd">
<svg version="1.0" xmlns="http://www.w3.org/2000/svg"
 width="100.000000pt" height="100.000000pt" viewBox="0 0 100.000000 100.000000"
 preserveAspectRatio="xMidYMid meet">
<metadata>
Created by potrace 1.14, written by Peter Selinger 2001-2017
</metadata>
<g transform="translate(0.000000,100.000000) scale(0.100000,-0.100000)"
fill="#000000" stroke="none">
<path d="M0 500 l0 -500 500 0 500 0 0 500 0 500 -500 0 -500 0 0 -500z m336
319 c31 -15 48 -32 63 -63 26 -52 26 -79 1 -134 -39 -85 -154 -105 -227 -38
-61 56 -64 153 -6 208 53 51 104 59 169 27z m523 -294 c10 -3 31 -19 47 -36
25 -26 29 -38 29 -89 0 -51 -4 -63 -28 -88 -42 -44 -100 -56 -154 -32 -26 11
-51 32 -61 49 -9 17 -20 31 -23 31 -3 0 -4 11 -1 25 3 19 0 25 -14 26 -16 0
-15 2 4 9 12 5 22 17 22 26 0 28 68 83 111 90 30 5 39 11 40 28 2 15 3 14 6
-6 2 -15 12 -30 22 -33z m-771 -42 c-10 -2 -28 -2 -40 0 -13 2 -5 4 17 4 22 1
32 -1 23 -4z m90 -10 c-10 -2 -28 -2 -40 0 -13 2 -5 4 17 4 22 1 32 -1 23 -4z
m80 -10 c-10 -2 -26 -2 -35 0 -10 3 -2 5 17 5 19 0 27 -2 18 -5z m90 -10 c-10
-2 -28 -2 -40 0 -13 2 -5 4 17 4 22 1 32 -1 23 -4z m90 -10 c-10 -2 -28 -2
-40 0 -13 2 -5 4 17 4 22 1 32 -1 23 -4z m90 -10 c-10 -2 -28 -2 -40 0 -13 2
-5 4 17 4 22 1 32 -1 23 -4z m80 -10 c-10 -2 -28 -2 -40 0 -13 2 -5 4 17 4 22
1 32 -1 23 -4z m-31 -89 c-3 -3 -12 -4 -19 -1 -8 3 -5 6 6 6 11 1 17 -2 13 -5z
m-40 -10 c-3 -3 -12 -4 -19 -1 -8 3 -5 6 6 6 11 1 17 -2 13 -5z m-110 -30 c-3
-3 -12 -4 -19 -1 -8 3 -5 6 6 6 11 1 17 -2 13 -5z m-150 -40 c-3 -3 -12 -4
-19 -1 -8 3 -5 6 6 6 11 1 17 -2 13 -5z m-110 -30 c-3 -3 -12 -4 -19 -1 -8 3
-5 6 6 6 11 1 17 -2 13 -5z"/>
<path d="M743 491 c-32 -20 -49 -53 -38 -71 3 -5 1 -10 -4 -10 -6 0 -11 -7
-11 -15 0 -8 8 -15 18 -15 13 0 14 -2 3 -9 -10 -6 -11 -13 -2 -29 27 -51 106
-69 158 -35 63 42 63 145 0 183 -42 26 -50 4 -13 -34 46 -45 26 -117 -35 -131
-35 -9 -89 36 -89 74 0 37 25 68 60 76 35 8 41 35 8 35 -13 0 -37 -9 -55 -19z"/>
</g>
</svg>
