<?xml version="1.0" encoding="utf-8"?>
<!-- Generator: Adobe Illustrator 23.1.1, SVG Export Plug-In . SVG Version: 6.00 Build 0)  -->
<svg version="1.1" id="Layer_1" xmlns="http://www.w3.org/2000/svg" xmlns:xlink="http://www.w3.org/1999/xlink" x="0px" y="0px"
	 viewBox="0 0 1400 316.8" style="enable-background:new 0 0 1400 316.8;" xml:space="preserve">
<style type="text/css">
	.st0{fill:#F7EC13;}
	.st1{opacity:0.751;fill:#72BAC1;enable-background:new    ;}
	.st2{fill:#72BAC1;}
</style>
<g>
	<g>
		<g transform="matrix(1, 0, 0, 1, 0, 0)">
			<path id="Path_814-2" class="st0" d="M80.9,286.5l410.8-65.4v26.2l-410.8,64L80.9,286.5z"/>
		</g>
		<g transform="matrix(1, 0, 0, 1, 0, 0)">
			<path id="Path_816-2" class="st1" d="M799.4,177.4l286.8-49.8l-0.1,50.5l-286.8,47.1L799.4,177.4z"/>
		</g>
		<g transform="matrix(1, 0, 0, 1, 0, 0)">
			<path id="Path_817-2" class="st2" d="M635.8,157.4l286.8-49.8l-0.1,50.5l-286.8,47.1L635.8,157.4z"/>
		</g>
		<polygon class="st2" points="1400,13.5 1182.3,55.8 1183.1,104 1400,63.9 		"/>
	</g>
</g>
<g id="Layer_1_copy">
	<g>
		<g transform="matrix(1, 0, 0, 1, 0, 0)">
			<path id="Path_814-2_1_" class="st0" d="M80.9,286.5l410.8-65.4v26.2l-410.8,64L80.9,286.5z"/>
		</g>
		<g transform="matrix(1, 0, 0, 1, 0, 0)">
			<path id="Path_816-2_1_" class="st1" d="M799.4,177.4l286.8-49.8l-0.1,50.5l-286.8,47.1L799.4,177.4z"/>
		</g>
		<g transform="matrix(1, 0, 0, 1, 0, 0)">
			<path id="Path_817-2_1_" class="st2" d="M635.8,157.4l286.8-49.8l-0.1,50.5l-286.8,47.1L635.8,157.4z"/>
		</g>
		<polygon class="st2" points="1400,13.5 1182.3,55.8 1183.1,104 1400,63.9 		"/>
	</g>
</g>
</svg>
