<?xml version="1.0" encoding="utf-8"?>
<!-- Generator: Adobe Illustrator 23.1.1, SVG Export Plug-In . SVG Version: 6.00 Build 0)  -->
<svg version="1.1" id="Layer_1" xmlns="http://www.w3.org/2000/svg" xmlns:xlink="http://www.w3.org/1999/xlink" x="0px" y="0px"
	 viewBox="0 0 390 146.4" style="enable-background:new 0 0 390 146.4;" xml:space="preserve">
<style type="text/css">
	.st0{fill:#155D6E;}
	.st1{fill:#F7EC13;}
	.st2{opacity:0.751;fill:#72BAC1;enable-background:new    ;}
	.st3{fill:#72BAC1;}
</style>
<polygon class="st0" points="217,90.4 216.4,42.2 390,9.4 390,0 0,0 0,120.8 135.5,100.3 135.3,126.1 336.6,98.3 336.2,68.9 "/>
<polygon class="st1" points="0,120.8 0,144.7 0,146.4 135.3,126.4 135.3,126.1 135.5,100.3 "/>
<polygon class="st0" points="390,59.3 336.2,68.9 336.6,98.3 390,91 "/>
<polygon class="st2" points="336.2,68.9 336.6,98.3 336.7,108.9 390,99.3 390,91 390,59.3 "/>
<polygon class="st3" points="216.4,42.2 217,90.4 336.2,68.9 390,59.3 390,50.5 390,9.4 "/>
</svg>
